<svg width="21" height="26" viewBox="0 0 21 26" fill="none" xmlns="http://www.w3.org/2000/svg">
<path d="M5.85199 5.75177C5.54164 5.75177 5.24401 5.90441 5.02456 6.17611C4.80511 6.44781 4.68182 6.81631 4.68182 7.20055C4.68182 7.58479 4.80511 7.95329 5.02456 8.22499C5.24401 8.49669 5.54164 8.64933 5.85199 8.64933H15.127C15.4373 8.64933 15.735 8.49669 15.9544 8.22499C16.1739 7.95329 16.2971 7.58479 16.2971 7.20055C16.2971 6.81631 16.1739 6.44781 15.9544 6.17611C15.735 5.90441 15.4373 5.75177 15.127 5.75177H5.85199Z" fill="white"/>
<path d="M4.68536 13C4.68536 12.2027 5.20686 11.5512 5.85203 11.5512H15.127C15.4374 11.5512 15.735 11.7038 15.9545 11.9755C16.1739 12.2472 16.2972 12.6157 16.2972 13C16.2972 13.3842 16.1739 13.7527 15.9545 14.0244C15.735 14.2961 15.4374 14.4488 15.127 14.4488H5.85203C5.20686 14.4488 4.68536 13.7988 4.68536 13Z" fill="white"/>
<path d="M5.86252 17.3507C5.55202 17.3507 5.25424 17.5034 5.03468 17.7753C4.81512 18.0471 4.69177 18.4158 4.69177 18.8002C4.69177 19.1846 4.81512 19.5533 5.03468 19.8252C5.25424 20.097 5.55202 20.2497 5.86252 20.2497H15.1375C15.448 20.2497 15.7458 20.097 15.9654 19.8252C16.1849 19.5533 16.3083 19.1846 16.3083 18.8002C16.3083 18.4158 16.1849 18.0471 15.9654 17.7753C15.7458 17.5034 15.448 17.3507 15.1375 17.3507H5.86252Z" fill="white"/>
<path fill-rule="evenodd" clip-rule="evenodd" d="M0 4.33333C0 3.18406 0.368749 2.08186 1.02513 1.2692C1.6815 0.456546 2.57174 0 3.5 0H17.5C18.4283 0 19.3185 0.456546 19.9749 1.2692C20.6313 2.08186 21 3.18406 21 4.33333V21.6667C21 22.8159 20.6313 23.9181 19.9749 24.7308C19.3185 25.5435 18.4283 26 17.5 26H3.5C2.57174 26 1.6815 25.5435 1.02513 24.7308C0.368749 23.9181 0 22.8159 0 21.6667V4.33333ZM3.5 2.88889H17.5C17.8094 2.88889 18.1062 3.04107 18.325 3.31196C18.5438 3.58284 18.6667 3.95024 18.6667 4.33333V21.6667C18.6667 22.0498 18.5438 22.4172 18.325 22.688C18.1062 22.9589 17.8094 23.1111 17.5 23.1111H3.5C3.19058 23.1111 2.89383 22.9589 2.67504 22.688C2.45625 22.4172 2.33333 22.0498 2.33333 21.6667V4.33333C2.33333 3.95024 2.45625 3.58284 2.67504 3.31196C2.89383 3.04107 3.19058 2.88889 3.5 2.88889Z" fill="white"/>
</svg>
