<svg width="31" height="31" viewBox="0 0 31 31" fill="none" xmlns="http://www.w3.org/2000/svg">
<path d="M5.71756 26.351L3.54175 1.9375H27.4582L25.2795 26.3471L15.4855 29.0625L5.71756 26.351Z" fill="#1572B6"/>
<path d="M15.5 26.9874L23.4147 24.7932L25.2766 3.93408H15.5V26.9874Z" fill="#33A9DC"/>
<path d="M15.5 12.7788H19.4622L19.7354 9.71273H15.5V6.71832H23.0078L22.9361 7.52142L22.2008 15.7732H15.5V12.7788V12.7788Z" fill="white"/>
<path d="M15.5184 20.5549L15.5049 20.5588L12.1705 19.6579L11.9573 17.2699H8.95129L9.37076 21.9712L15.5039 23.6743L15.5184 23.6704V20.5549V20.5549Z" fill="#EBEBEB"/>
<path d="M19.2075 15.6463L18.8471 19.656L15.5078 20.5569V23.6724L21.6458 21.9713L21.6913 21.4656L22.2116 15.6463H19.2075V15.6463Z" fill="white"/>
<path d="M15.5107 6.71832V9.71273H8.27799L8.21792 9.03945L8.08133 7.52142L8.00964 6.71832H15.5107V6.71832Z" fill="#EBEBEB"/>
<path d="M15.5 12.7788V15.7732H12.2072L12.1471 15.0999L12.0115 13.5819L11.9398 12.7788H15.5V12.7788Z" fill="#EBEBEB"/>
</svg>
