<svg width="25" height="31" viewBox="0 0 25 31" fill="none" xmlns="http://www.w3.org/2000/svg">
<path d="M1.9675 8.1933L11.3425 14.4382C11.6575 14.6475 12.065 14.7467 12.475 14.7467C12.885 14.7467 13.2925 14.6475 13.6075 14.4382L22.9825 8.1933C23.5938 7.78565 24.1713 6.2 23.05 6.2H1.90125C0.780002 6.2 1.3575 7.78565 1.9675 8.1933V8.1933ZM23.2663 11.6079L13.6075 17.8498C13.1825 18.1257 12.885 18.1582 12.475 18.1582C12.065 18.1582 11.7675 18.1257 11.3425 17.8498C10.9175 17.5739 2.42625 12.0543 1.7325 11.6064C1.245 11.2902 1.25 11.6606 1.25 11.9458V23.25C1.25 23.901 1.9575 24.8 2.5 24.8H22.5C23.0425 24.8 23.75 23.901 23.75 23.25V11.9474C23.75 11.6622 23.755 11.2917 23.2663 11.6079V11.6079Z" fill="#7B7777"/>
</svg>
