<svg width="20" height="20" viewBox="0 0 20 20" fill="none" xmlns="http://www.w3.org/2000/svg">
<g clip-path="url(#clip0)">
<path d="M20 4.54753V16.1384C20 16.8917 19.39 17.5017 18.6367 17.5017H15.4542V9.77503L10 13.8667L4.54583 9.77503V17.5025H1.36333C1.18423 17.5025 1.00688 17.4672 0.841416 17.3987C0.675954 17.3301 0.525625 17.2296 0.399017 17.1029C0.272408 16.9762 0.172003 16.8259 0.103539 16.6603C0.0350737 16.4948 -0.000109223 16.3175 2.5471e-07 16.1384V4.54753C2.5471e-07 2.8617 1.92417 1.8992 3.2725 2.91087L4.54583 3.8667L10 7.9567L15.4542 3.86503L16.7275 2.91087C18.075 1.90003 20 2.8617 20 4.54753Z" fill="white"/>
</g>
<defs>
<clipPath id="clip0">
<rect width="20" height="20" fill="white"/>
</clipPath>
</defs>
</svg>
