<svg width="31" height="30" viewBox="0 0 31 30" fill="none" xmlns="http://www.w3.org/2000/svg">
<path d="M5.71755 25.5009L3.54077 1.875H27.4592L25.2795 25.4972L15.4855 28.125L5.71755 25.5009Z" fill="#E44F26"/>
<path d="M15.5 26.1169L23.4147 23.9934L25.2766 3.80717H15.5V26.1169Z" fill="#F1662A"/>
<path d="M15.5 12.5691H11.5378L11.2646 9.60188H15.5V6.70406H7.99219L8.06388 7.48219L8.79916 15.4669H15.5V12.5691Z" fill="#EBEBEB"/>
<path d="M15.5 20.0944L15.4865 20.0981L12.152 19.2272L11.9389 16.9163H8.93286L9.35233 21.465L15.4865 23.1131L15.5 23.1094V20.0944Z" fill="#EBEBEB"/>
<path d="M15.4893 12.5691V15.4669H19.1764L18.8296 19.2253L15.4893 20.0972V23.1122L21.6283 21.465L21.6728 20.9756L22.3762 13.3472L22.4498 12.5691H15.4893Z" fill="white"/>
<path d="M15.4893 6.70406V9.60187H22.722L22.7821 8.95125L22.9187 7.48219L22.9903 6.70406H15.4893Z" fill="white"/>
</svg>
