<svg width="31" height="31" viewBox="0 0 31 31" fill="none" xmlns="http://www.w3.org/2000/svg">
<path d="M1.9375 1.9375H29.0625V29.0625H1.9375V1.9375Z" fill="#F5DE19"/>
<path d="M20.1587 23.1289C20.3898 23.5983 20.7489 23.9929 21.1945 24.2672C21.6402 24.5414 22.1542 24.6841 22.6774 24.6789C23.7334 24.6789 24.4086 24.1509 24.4086 23.4195C24.4086 22.5476 23.715 22.2357 22.5525 21.7271L21.915 21.4539C20.0744 20.6702 18.8538 19.6889 18.8538 17.6138C18.8538 15.7025 20.3069 14.2464 22.5864 14.2464C23.3243 14.1931 24.0615 14.3583 24.7062 14.7213C25.3509 15.0843 25.8744 15.629 26.2114 16.2876L24.2187 17.5615C24.0889 17.2349 23.8629 16.9556 23.5707 16.7604C23.2785 16.5652 22.9339 16.4635 22.5825 16.4687C22.4292 16.4534 22.2744 16.4701 22.1279 16.5179C21.9815 16.5657 21.8466 16.6435 21.7318 16.7463C21.6171 16.8491 21.525 16.9747 21.4615 17.115C21.398 17.2554 21.3644 17.4074 21.3629 17.5615C21.3629 18.3258 21.8366 18.6358 22.9303 19.1115L23.5677 19.3847C25.7339 20.3137 26.9584 21.2602 26.9584 23.3885C26.9584 25.6835 25.1555 26.9409 22.7346 26.9409C21.7913 27.001 20.8508 26.7869 20.0266 26.3243C19.2023 25.8617 18.5296 25.1705 18.0894 24.334L20.1587 23.1289ZM11.1542 23.3498C11.5543 24.0599 11.9185 24.6605 12.7943 24.6605C13.6313 24.6605 14.1602 24.333 14.1602 23.0591V14.3917H16.709V23.093C16.709 25.7319 15.159 26.9332 12.9028 26.9332C12.1052 26.9768 11.3132 26.778 10.6307 26.363C9.94828 25.9481 9.40737 25.3363 9.0791 24.6082L11.1542 23.3498Z" fill="black"/>
</svg>
