<svg width="39" height="40" viewBox="0 0 39 40" fill="none" xmlns="http://www.w3.org/2000/svg">
<path fill-rule="evenodd" clip-rule="evenodd" d="M28.3709 0.156899C27.5336 0.499368 26.1192 2.0048 25.7477 2.94829C25.3256 4.02122 20.7503 32.4974 20.7503 34.0525C20.7503 35.916 21.4113 36.4589 23.6812 36.4589C25.1749 36.4589 25.9002 36.284 26.5867 35.7584C28.4517 34.3304 28.6393 33.7464 30.0097 25.0916C30.7333 20.5212 31.2767 16.732 31.2174 16.6712C31.1581 16.6104 30.29 17.2453 29.2877 18.0825L27.466 19.6042L26.5277 25.7748C25.8988 29.9096 25.4423 32.0031 25.1434 32.1207C24.8982 32.2171 24.6438 32.2389 24.5775 32.1692C24.4479 32.032 28.6118 5.51749 28.8884 4.72043C29.0167 4.3501 29.1455 4.33142 29.4467 4.64025C29.7479 4.94908 29.6349 6.3125 28.9567 10.5478C28.4716 13.576 28.1366 16.117 28.2122 16.1945C28.4779 16.4666 30.3016 15.5007 31.0371 14.6979C31.9009 13.7547 32.9923 8.16958 33.1063 4.10786C33.1656 1.99971 33.0755 1.5526 32.4668 0.927794C31.7505 0.192233 29.3762 -0.254539 28.3709 0.156899ZM10.8103 1.25769C10.8103 1.79824 9.46945 10.6273 7.83068 20.8783C6.19159 31.1296 4.84969 39.6315 4.8487 39.7715C4.84406 40.3063 5.41263 39.9567 7.49703 38.1427C9.60794 36.306 9.654 36.2303 9.81635 34.3253L9.98202 32.3819L10.976 34.1503L11.97 35.9187L13.7565 34.1503C14.7996 33.1178 15.4427 32.6646 15.3022 33.0614C15.1697 33.4352 14.9798 34.238 14.8804 34.8451L14.6995 35.9493H16.8611C19.2858 35.9493 19.42 35.8195 19.4326 33.4583C19.4395 32.1944 24.0112 3.52859 24.5762 1.20979L24.8035 0.275472H21.8917C19.5972 0.275472 18.8461 0.399821 18.3471 0.862901C17.7471 1.41975 17.6974 1.41975 17.3932 0.862901C17.1249 0.370942 16.5649 0.275472 13.9414 0.275472H10.8103V1.25769ZM15.1176 5.27796C15.1176 5.60039 14.28 11.1424 13.2562 17.5939C11.5442 28.381 10.7772 31.9515 10.2809 31.4425C10.1222 31.2798 13.9285 6.4005 14.3085 5.11692C14.4967 4.48125 15.1176 4.60492 15.1176 5.27796ZM19.7454 5.2868C19.7394 5.61364 18.7934 11.6911 17.6431 18.7919C15.9818 29.0459 15.5007 31.4483 15.3048 30.4678C15.1292 29.5888 15.6004 25.8186 16.9393 17.3874C17.9741 10.8723 18.8773 5.35067 18.9468 5.11692C19.137 4.47581 19.7579 4.60763 19.7454 5.2868ZM2.96541 12.4216L0 19.8111L0.575854 26.9459C0.892606 30.87 1.16297 34.501 1.17689 35.015C1.20041 35.8994 1.2859 35.9493 2.77556 35.95L4.34938 35.9507L4.24899 33.8265C4.19399 32.6581 3.94582 29.0269 3.69766 25.7568L3.24638 19.8111L4.34673 16.9233C4.95174 15.3349 6.27309 12.0098 7.28299 9.53368L9.11923 5.03198H7.52486H5.93083L2.96541 12.4216ZM34.7772 7.3253C34.8905 8.58646 35.1513 11.8664 35.3567 14.6136L35.7301 19.6087L32.6689 27.5242C30.9854 31.8777 29.5448 35.5545 29.4669 35.6945C29.3894 35.8348 30.0481 35.9493 30.9308 35.9493H32.5361L35.7679 27.7684L39 19.5876L38.4841 13.414C37.7303 4.39495 37.9119 5.03198 36.0946 5.03198H34.5711L34.7772 7.3253Z" fill="white"/>
</svg>
