<svg width="31" height="31" viewBox="0 0 31 31" fill="none" xmlns="http://www.w3.org/2000/svg">
<path d="M15.5 30.9429C15.0187 30.9429 14.5694 30.8292 14.1522 30.6303L9.88404 28.3845C9.24224 28.0718 9.56314 27.9581 9.75568 27.9013C10.6221 27.6455 10.7826 27.5886 11.6811 27.1337C11.7775 27.0768 11.9058 27.1053 12.002 27.1621L15.2754 28.8962C15.4037 28.953 15.5642 28.953 15.6604 28.8962L28.4649 22.3297C28.5933 22.2728 28.6574 22.1591 28.6574 22.017V8.91213C28.6574 8.77 28.5933 8.6563 28.4649 8.59945L15.6604 2.06124C15.5321 2.00439 15.3716 2.00439 15.2754 2.06124L2.47092 8.59956C2.34256 8.65641 2.27838 8.79854 2.27838 8.91224V22.017C2.27838 22.1307 2.34256 22.2728 2.47092 22.3297L5.96895 24.1205C7.86237 24.9732 9.04958 23.9783 9.04958 22.9834V10.0492C9.04958 9.8786 9.21015 9.70805 9.43478 9.70805H11.0715C11.264 9.70805 11.4566 9.85018 11.4566 10.0492V22.9833C11.4566 25.2291 10.0766 26.5367 7.66972 26.5367C6.93165 26.5367 6.35403 26.5367 4.71745 25.826L1.34777 24.1205C0.513438 23.694 0 22.8981 0 22.0453V8.94066C0 8.08789 0.513438 7.29198 1.34777 6.86549L14.1522 0.298957C14.9545 -0.0990013 16.0455 -0.0990013 16.8478 0.298957L29.6522 6.86549C30.4866 7.29187 31 8.08779 31 8.94066V22.0454C31 22.8982 30.4866 23.6941 29.6522 24.1205L16.8478 30.6872C16.4306 30.8578 15.9493 30.943 15.5 30.943V30.9429ZM19.4472 21.9316C13.8312 21.9316 12.676 19.6575 12.676 17.7245C12.676 17.5539 12.8364 17.3834 13.0611 17.3834H14.7297C14.9223 17.3834 15.0828 17.4971 15.0828 17.6676C15.3396 19.1742 16.0776 19.9134 19.4793 19.9134C22.1749 19.9134 23.3303 19.3733 23.3303 18.0941C23.3303 17.355 23.0094 16.8149 18.8054 16.4452C15.3075 16.1326 13.1252 15.4503 13.1252 12.9773C13.1252 10.6746 15.3073 9.3102 18.9658 9.3102C23.0734 9.3102 25.0952 10.5609 25.3519 13.2899C25.3519 13.3752 25.3199 13.4604 25.2557 13.5457C25.1915 13.6026 25.0952 13.6594 24.999 13.6594H23.3303C23.1697 13.6594 23.0094 13.5457 22.9772 13.4036C22.5921 11.8402 21.5973 11.3285 18.9658 11.3285C16.0136 11.3285 15.6604 12.2381 15.6604 12.9204C15.6604 13.7448 16.0776 14.0005 20.0569 14.4553C24.0042 14.9101 25.8654 15.564 25.8654 18.0088C25.8333 20.5103 23.5228 21.9316 19.4472 21.9316V21.9316Z" fill="#539E43"/>
</svg>
