<svg width="31" height="31" viewBox="0 0 31 31" fill="none" xmlns="http://www.w3.org/2000/svg">
<path d="M25.4882 10.0376C25.1583 9.91054 24.8256 9.7928 24.4904 9.68453C24.5467 9.4262 24.5985 9.17099 24.6445 8.92027C25.3999 4.80312 24.9061 1.48626 23.2194 0.394186C21.6022 -0.652744 18.9573 0.438918 16.2863 3.04904C16.023 3.30674 15.7656 3.57186 15.5143 3.84416C15.346 3.66309 15.1748 3.48553 15.0007 3.31158C12.2013 0.520769 9.3953 -0.655463 7.7104 0.439734C6.09465 1.48993 5.61621 4.60801 6.29627 8.50993C6.36393 8.89638 6.44032 9.28083 6.52538 9.66291C6.12819 9.78963 5.74493 9.92451 5.37814 10.0681C2.09601 11.353 0 13.3665 0 15.455C0 17.6121 2.25016 19.7757 5.66864 21.0876C5.94578 21.1936 6.22523 21.2917 6.50673 21.382C6.41531 21.7935 6.33414 22.2078 6.26333 22.6244C5.615 26.4587 6.12129 29.503 7.73268 30.5466C9.397 31.6242 12.1904 30.5167 14.9103 27.847C15.1308 27.63 15.3465 27.4068 15.5572 27.1776C15.8293 27.4725 16.1088 27.7588 16.3951 28.0361C19.0299 30.5817 21.6319 31.6096 23.2418 30.5632C24.9045 29.4824 25.4449 26.2119 24.7433 22.2329C24.6881 21.9211 24.6261 21.611 24.5574 21.3026C24.7536 21.2373 24.9462 21.1702 25.1339 21.1003C28.6877 19.7783 31 17.6409 31 15.455C31 13.3588 28.8363 11.3317 25.4882 10.0376V10.0376ZM24.7174 19.689C24.5479 19.7519 24.374 19.8127 24.1967 19.8718C23.8044 18.4772 23.2749 16.9944 22.627 15.4622C23.2453 13.9666 23.7544 12.5027 24.1357 11.1172C24.4528 11.2203 24.7605 11.3289 25.0572 11.4435C27.9259 12.5524 29.6757 14.1918 29.6757 15.455C29.6757 16.8005 27.7859 18.5473 24.7174 19.689V19.689ZM23.4442 22.5217C23.7545 24.281 23.7987 25.8718 23.5932 27.1155C23.4086 28.233 23.0374 28.978 22.5782 29.2764C21.6013 29.9114 19.5121 29.086 17.2589 26.909C16.9925 26.6511 16.7326 26.385 16.4794 26.1109C17.353 25.0382 18.2259 23.7913 19.078 22.4064C20.5766 22.2571 21.9924 22.0129 23.2764 21.6796C23.3396 21.9661 23.3958 22.247 23.4442 22.5217V22.5217ZM10.5686 29.1667C9.61412 29.5451 8.85389 29.5559 8.39434 29.2584C7.41651 28.6253 7.01 26.1807 7.56448 22.9018C7.6304 22.5144 7.70587 22.129 7.79081 21.7462C9.0606 22.0617 10.4661 22.2885 11.9683 22.4253C12.8261 23.7804 13.7243 25.026 14.6295 26.1167C14.4371 26.3257 14.2402 26.5293 14.0389 26.7275C12.8361 27.9079 11.6308 28.7455 10.5686 29.1667V29.1667ZM6.09707 19.6807C4.58546 19.1005 3.3371 18.3466 2.48145 17.5239C1.71251 16.7846 1.3244 16.0505 1.3244 15.455C1.3244 14.1876 3.00724 12.5709 5.81407 11.4722C6.15471 11.339 6.51121 11.2132 6.88115 11.0952C7.26914 12.5119 7.77797 13.9933 8.39204 15.4912C7.76998 17.0113 7.25388 18.5163 6.86214 19.9497C6.60519 19.8671 6.35009 19.7774 6.09707 19.6807V19.6807ZM7.59597 8.22427C7.01339 4.8813 7.40028 2.35956 8.374 1.72664C9.41104 1.05253 11.7043 2.01366 14.1215 4.42351C14.2791 4.581 14.4342 4.7417 14.5866 4.9055C13.6859 5.99145 12.796 7.22778 11.9458 8.57492C10.4878 8.72666 9.0922 8.97031 7.80909 9.29676C7.73004 8.94137 7.65898 8.58381 7.59597 8.2244V8.22427ZM20.968 11.9318C20.6649 11.344 20.3506 10.7636 20.0253 10.191C21.0144 10.3315 21.962 10.5179 22.852 10.7457C22.5848 11.7073 22.2518 12.7125 21.8598 13.7431C21.5733 13.1327 21.276 12.5288 20.968 11.9318V11.9318ZM15.5149 5.9682C16.1257 6.71125 16.7375 7.54077 17.3392 8.44086C16.1185 8.37613 14.8959 8.37586 13.6752 8.44004C14.2776 7.54825 14.8945 6.71982 15.5149 5.9682ZM10.0268 11.942C9.72266 12.5342 9.43086 13.1343 9.15166 13.7419C8.7661 12.7149 8.43612 11.7051 8.16668 10.73C9.05115 10.5078 9.99435 10.3261 10.9771 10.1883C10.6482 10.7644 10.3313 11.349 10.0268 11.9418V11.942ZM11.0054 20.8275C9.98999 20.7003 9.03263 20.528 8.1484 20.3118C8.42207 19.3193 8.75932 18.288 9.15323 17.239C9.43355 17.847 9.72655 18.4475 10.032 19.04C10.3461 19.6491 10.6714 20.2457 11.0054 20.8275ZM15.5515 25.0465C14.9237 24.2862 14.2977 23.445 13.6863 22.5403C14.2799 22.5664 14.885 22.5797 15.5 22.5797C16.1319 22.5797 16.7565 22.5638 17.3713 22.5331C16.7676 23.4541 16.1581 24.2965 15.5515 25.0465ZM21.8723 17.1854C22.2867 18.246 22.6359 19.2718 22.9132 20.2474C22.0145 20.4777 21.044 20.6632 20.0215 20.8009C20.3492 20.2177 20.6665 19.6272 20.9732 19.0298C21.2851 18.4226 21.5848 17.8076 21.8723 17.1854V17.1854ZM19.8261 18.2869C19.3565 19.2028 18.8605 20.1013 18.3389 20.981C17.3941 21.0562 16.4472 21.0935 15.5 21.0929C14.5352 21.0929 13.5969 21.0592 12.6933 20.9934C12.1581 20.1157 11.6526 19.2156 11.178 18.2951H11.1782C10.7058 17.3793 10.2646 16.4438 9.85546 15.4905C10.2635 14.537 10.7034 13.601 11.1742 12.6846L11.174 12.6847C11.6446 11.7681 12.146 10.8718 12.6772 9.99793C13.5991 9.91961 14.5444 9.87882 15.4999 9.87882H15.5C16.4598 9.87882 17.4064 9.92002 18.328 9.99888C18.8538 10.8715 19.352 11.7647 19.8217 12.6767C20.294 13.5911 20.7397 14.5225 21.1581 15.4694C20.744 16.426 20.2997 17.3658 19.8261 18.2869V18.2869ZM22.5579 1.68232C23.596 2.35453 23.9997 5.06526 23.3475 8.62006C23.3058 8.84685 23.2591 9.07786 23.2082 9.31212C21.922 8.97874 20.5254 8.73087 19.0632 8.57683C18.2114 7.21486 17.3288 5.97663 16.4427 4.90468C16.6749 4.65336 16.9127 4.40854 17.1557 4.17048C19.4444 1.93426 21.5834 1.0513 22.5579 1.68232V1.68232ZM15.5 12.3469C17.0288 12.3469 18.2682 13.7385 18.2682 15.455C18.2682 17.1716 17.0288 18.5632 15.5 18.5632C13.9712 18.5632 12.7318 17.1716 12.7318 15.455C12.7318 13.7385 13.9712 12.3469 15.5 12.3469V12.3469Z" fill="#00D8FF"/>
</svg>
